# Blender v2.79 (sub 0) OBJ File: 'lego.blend'
# www.blender.org
mtllib lego.mtl
o 1x1_Base_Null_9_Boole17_Boole_15_Cube6
v 1.254917 -0.531050 1.302837
v 1.254917 0.521432 1.302837
v 1.254917 0.521432 -1.262589
v 1.254917 -0.531050 -1.262589
v -1.310509 -0.531050 1.302837
v -1.310509 0.521432 1.302837
v -1.310509 -0.531050 -1.262589
v -1.310509 0.521432 -1.262589
v -0.817158 -0.531050 -0.769238
v 0.761566 -0.531050 -0.769238
v 0.761566 -0.531050 0.809486
v -0.817158 -0.531050 0.809486
v -0.788893 0.520314 -0.145802
v -0.800826 0.520314 -0.009345
v -0.014997 0.520314 -0.009345
v -0.788893 0.520314 -0.145802
v -0.788893 1.076940 -0.145802
v -0.800826 1.076940 -0.009345
v -0.800826 0.520314 -0.009345
v -0.788893 1.076940 -0.145802
v -0.014997 1.076940 -0.009345
v -0.800826 1.076940 -0.009345
v -0.753434 0.520313 -0.278113
v -0.753434 0.520313 -0.278113
v -0.753434 1.076940 -0.278113
v -0.753434 1.076940 -0.278113
v -0.695547 0.520313 -0.402258
v -0.695547 0.520313 -0.402258
v -0.695547 1.076940 -0.402258
v -0.695547 1.076940 -0.402258
v -0.616975 0.520313 -0.514465
v -0.616975 0.520313 -0.514465
v -0.616975 1.076940 -0.514465
v -0.616975 1.076940 -0.514465
v -0.520120 0.520313 -0.611323
v -0.520120 0.520313 -0.611323
v -0.520120 1.076940 -0.611323
v -0.520120 1.076940 -0.611323
v -0.407911 0.520313 -0.689890
v -0.407911 0.520313 -0.689890
v -0.407911 1.076940 -0.689890
v -0.407911 1.076940 -0.689890
v -0.283770 0.520313 -0.747780
v -0.283770 0.520313 -0.747780
v -0.283770 1.076940 -0.747780
v -0.283770 1.076940 -0.747780
v -0.151455 0.520313 -0.783233
v -0.151455 0.520313 -0.783233
v -0.151455 1.076940 -0.783233
v -0.151455 1.076940 -0.783233
v -0.014997 0.520313 -0.795171
v -0.014997 0.520313 -0.795171
v -0.014997 1.076940 -0.795171
v -0.014997 1.076940 -0.795171
v 0.121454 0.520313 -0.783233
v 0.121454 0.520313 -0.783233
v 0.121454 1.076940 -0.783233
v 0.121454 1.076940 -0.783233
v 0.253769 0.520313 -0.747780
v 0.253769 0.520313 -0.747780
v 0.253769 1.076940 -0.747780
v 0.253769 1.076940 -0.747780
v 0.377918 0.520313 -0.689890
v 0.377918 0.520313 -0.689890
v 0.377918 1.076940 -0.689890
v 0.377918 1.076940 -0.689890
v 0.490126 0.520313 -0.611323
v 0.490126 0.520313 -0.611323
v 0.490126 1.076940 -0.611323
v 0.490126 1.076940 -0.611323
v 0.586974 0.520313 -0.514465
v 0.586974 0.520313 -0.514465
v 0.586974 1.076940 -0.514465
v 0.586974 1.076940 -0.514465
v 0.665545 0.520313 -0.402258
v 0.665545 0.520313 -0.402258
v 0.665545 1.076940 -0.402258
v 0.665545 1.076940 -0.402258
v 0.723440 0.520313 -0.278113
v 0.723440 0.520313 -0.278113
v 0.723440 1.076940 -0.278113
v 0.723440 1.076940 -0.278113
v 0.758892 0.520314 -0.145802
v 0.758892 0.520314 -0.145802
v 0.758892 1.076940 -0.145802
v 0.758892 1.076940 -0.145802
v 0.770824 0.520314 -0.009345
v 0.770824 0.520314 -0.009345
v 0.770824 1.076940 -0.009345
v 0.770824 1.076940 -0.009345
v 0.758892 0.520314 0.127112
v 0.758892 0.520314 0.127112
v 0.758892 1.076940 0.127112
v 0.758892 1.076940 0.127112
v 0.723440 0.520314 0.259423
v 0.723440 0.520314 0.259423
v 0.723440 1.076940 0.259423
v 0.723440 1.076940 0.259423
v 0.665545 0.520314 0.383568
v 0.665545 0.520314 0.383568
v 0.665545 1.076940 0.383568
v 0.665545 1.076940 0.383568
v 0.586974 0.520314 0.495774
v 0.586974 0.520314 0.495774
v 0.586974 1.076940 0.495774
v 0.586974 1.076940 0.495774
v 0.490126 0.520314 0.592632
v 0.490126 0.520314 0.592632
v 0.490126 1.076940 0.592632
v 0.490126 1.076940 0.592632
v 0.377918 0.520314 0.671199
v 0.377918 0.520314 0.671199
v 0.377918 1.076940 0.671199
v 0.377918 1.076940 0.671199
v 0.253769 0.520314 0.729089
v 0.253769 0.520314 0.729089
v 0.253769 1.076940 0.729089
v 0.253769 1.076940 0.729089
v 0.121454 0.520314 0.764542
v 0.121454 0.520314 0.764542
v 0.121454 1.076940 0.764542
v 0.121454 1.076940 0.764542
v -0.014997 0.520314 0.776480
v -0.014997 0.520314 0.776480
v -0.014997 1.076940 0.776480
v -0.014997 1.076940 0.776480
v -0.151455 0.520314 0.764542
v -0.151455 0.520314 0.764542
v -0.151455 1.076940 0.764542
v -0.151455 1.076940 0.764542
v -0.283770 0.520314 0.729089
v -0.283770 0.520314 0.729089
v -0.283770 1.076940 0.729089
v -0.283770 1.076940 0.729089
v -0.407911 0.520314 0.671199
v -0.407911 0.520314 0.671199
v -0.407911 1.076940 0.671199
v -0.407911 1.076940 0.671199
v -0.520120 0.520314 0.592632
v -0.520120 0.520314 0.592632
v -0.520120 1.076940 0.592632
v -0.520120 1.076940 0.592632
v -0.616975 0.520314 0.495774
v -0.616975 0.520314 0.495774
v -0.616975 1.076940 0.495774
v -0.616975 1.076940 0.495774
v -0.695547 0.520314 0.383568
v -0.695547 0.520314 0.383568
v -0.695547 1.076940 0.383568
v -0.695547 1.076940 0.383568
v -0.753434 0.520314 0.259423
v -0.753434 0.520314 0.259423
v -0.753434 1.076940 0.259423
v -0.753434 1.076940 0.259423
v -0.788893 0.520314 0.127112
v -0.788893 0.520314 0.127112
v -0.788893 1.076940 0.127112
v -0.788893 1.076940 0.127112
vt 1.000000 0.000000
vt 0.000000 0.000000
vt 0.000000 1.000000
vt 1.000000 1.000000
vt 1.000000 0.000000
vt 0.000000 0.000000
vt 0.000000 1.000000
vt 1.000000 1.000000
vt 1.000000 0.000000
vt 0.000000 0.000000
vt 0.000000 1.000000
vt 1.000000 1.000000
vt 1.000000 0.000000
vt 0.000000 0.000000
vt 0.000000 1.000000
vt 1.000000 1.000000
vt 1.000000 0.000000
vt 0.000000 0.000000
vt 0.192308 0.192308
vt 0.000000 1.000000
vt 0.192308 0.807692
vt 1.000000 1.000000
vt 0.807692 0.807692
vt 0.807692 0.192308
vt 0.007596 0.586824
vt 0.500000 0.500000
vt 0.000000 0.500000
vt 0.027778 0.000000
vt 0.000000 0.000000
vt 0.000000 1.000000
vt 0.027778 1.000000
vt 0.992404 0.586824
vt 1.000000 0.500000
vt 0.500000 0.500000
vt 0.030154 0.671010
vt 0.055556 0.000000
vt 0.055556 1.000000
vt 0.969846 0.671010
vt 0.066987 0.750000
vt 0.083333 0.000000
vt 0.083333 1.000000
vt 0.933013 0.750000
vt 0.116978 0.821394
vt 0.111111 0.000000
vt 0.111111 1.000000
vt 0.883022 0.821394
vt 0.178606 0.883022
vt 0.138889 0.000000
vt 0.138889 1.000000
vt 0.821394 0.883022
vt 0.250000 0.933013
vt 0.166667 0.000000
vt 0.166667 1.000000
vt 0.750000 0.933013
vt 0.328990 0.969846
vt 0.194444 0.000000
vt 0.194444 1.000000
vt 0.671010 0.969846
vt 0.413176 0.992404
vt 0.222222 0.000000
vt 0.222222 1.000000
vt 0.586824 0.992404
vt 0.500000 1.000000
vt 0.250000 0.000000
vt 0.250000 1.000000
vt 0.500000 1.000000
vt 0.586824 0.992404
vt 0.277778 0.000000
vt 0.277778 1.000000
vt 0.413176 0.992404
vt 0.671010 0.969846
vt 0.305556 0.000000
vt 0.305556 1.000000
vt 0.328990 0.969846
vt 0.750000 0.933013
vt 0.333333 0.000000
vt 0.333333 1.000000
vt 0.250000 0.933013
vt 0.821394 0.883022
vt 0.361111 0.000000
vt 0.361111 1.000000
vt 0.178606 0.883022
vt 0.883022 0.821394
vt 0.388889 0.000000
vt 0.388889 1.000000
vt 0.116978 0.821394
vt 0.933013 0.750000
vt 0.416667 0.000000
vt 0.416667 1.000000
vt 0.066987 0.750000
vt 0.969846 0.671010
vt 0.444444 0.000000
vt 0.444444 1.000000
vt 0.030154 0.671010
vt 0.992404 0.586824
vt 0.472222 0.000000
vt 0.472222 1.000000
vt 0.007596 0.586824
vt 1.000000 0.500000
vt 0.500000 0.000000
vt 0.500000 1.000000
vt 0.000000 0.500000
vt 0.992404 0.413176
vt 0.527778 0.000000
vt 0.527778 1.000000
vt 0.007596 0.413176
vt 0.969846 0.328990
vt 0.555556 0.000000
vt 0.555556 1.000000
vt 0.030154 0.328990
vt 0.933013 0.250000
vt 0.583333 0.000000
vt 0.583333 1.000000
vt 0.066987 0.250000
vt 0.883022 0.178606
vt 0.611111 0.000000
vt 0.611111 1.000000
vt 0.116978 0.178606
vt 0.821394 0.116978
vt 0.638889 0.000000
vt 0.638889 1.000000
vt 0.178606 0.116978
vt 0.750000 0.066987
vt 0.666667 0.000000
vt 0.666667 1.000000
vt 0.250000 0.066987
vt 0.671010 0.030154
vt 0.694444 0.000000
vt 0.694444 1.000000
vt 0.328990 0.030154
vt 0.586824 0.007596
vt 0.722222 0.000000
vt 0.722222 1.000000
vt 0.413176 0.007596
vt 0.500000 0.000000
vt 0.750000 0.000000
vt 0.750000 1.000000
vt 0.500000 0.000000
vt 0.413176 0.007596
vt 0.777778 0.000000
vt 0.777778 1.000000
vt 0.586824 0.007596
vt 0.328990 0.030154
vt 0.805556 0.000000
vt 0.805556 1.000000
vt 0.671010 0.030154
vt 0.250000 0.066987
vt 0.833333 0.000000
vt 0.833333 1.000000
vt 0.750000 0.066987
vt 0.178606 0.116978
vt 0.861111 0.000000
vt 0.861111 1.000000
vt 0.821394 0.116978
vt 0.116978 0.178606
vt 0.888889 0.000000
vt 0.888889 1.000000
vt 0.883022 0.178606
vt 0.066987 0.250000
vt 0.916667 0.000000
vt 0.916667 1.000000
vt 0.933013 0.250000
vt 0.030154 0.328990
vt 0.944444 0.000000
vt 0.944444 1.000000
vt 0.969846 0.328990
vt 0.007596 0.413176
vt 0.972222 0.000000
vt 0.972222 1.000000
vt 0.992404 0.413176
vt 1.000000 0.000000
vt 1.000000 1.000000
vn 1.0000 0.0000 0.0000
vn 0.0000 0.0000 1.0000
vn -1.0000 0.0000 0.0000
vn 0.0000 0.0000 -1.0000
vn 0.0000 1.0000 -0.0000
vn 0.0000 -1.0000 0.0000
vn -0.9962 0.0000 -0.0871
vn -0.9659 0.0000 -0.2589
vn -0.9063 0.0000 -0.4226
vn -0.8191 -0.0000 -0.5736
vn -0.7071 0.0000 -0.7071
vn -0.5736 0.0000 -0.8192
vn -0.4226 0.0000 -0.9063
vn -0.2588 0.0000 -0.9659
vn -0.0872 0.0000 -0.9962
vn 0.0872 0.0000 -0.9962
vn 0.2588 0.0000 -0.9659
vn 0.4226 0.0000 -0.9063
vn 0.5736 0.0000 -0.8192
vn 0.7071 0.0000 -0.7071
vn 0.8191 -0.0000 -0.5736
vn 0.9063 0.0000 -0.4226
vn 0.9659 0.0000 -0.2588
vn 0.9962 0.0000 -0.0871
vn 0.9962 0.0000 0.0871
vn 0.9659 0.0000 0.2588
vn 0.9063 0.0000 0.4226
vn 0.8191 0.0000 0.5736
vn 0.7071 0.0000 0.7071
vn 0.5736 0.0000 0.8192
vn 0.4226 0.0000 0.9063
vn 0.2588 0.0000 0.9659
vn 0.0872 0.0000 0.9962
vn -0.0872 0.0000 0.9962
vn -0.2588 0.0000 0.9659
vn -0.4226 0.0000 0.9063
vn -0.5736 0.0000 0.8192
vn -0.7071 0.0000 0.7071
vn -0.8191 0.0000 0.5736
vn -0.9063 0.0000 0.4226
vn -0.9659 0.0000 0.2589
vn -0.9962 0.0000 0.0871
usemtl Red
s off
f 1/1/1 4/2/1 3/3/1 2/4/1
f 5/5/2 1/6/2 2/7/2 6/8/2
f 7/9/3 5/10/3 6/11/3 8/12/3
f 4/13/4 7/14/4 8/15/4 3/16/4
f 2/17/5 3/18/5 8/15/5 6/8/5
f 9/19/6 7/14/6 4/20/6 10/21/6
f 1/22/6 11/23/6 10/21/6 4/20/6
f 5/5/6 7/14/6 9/19/6 12/24/6
f 5/5/6 12/24/6 11/23/6 1/22/6
f 13/25/6 15/26/6 14/27/6
f 16/28/7 19/29/7 18/30/7 17/31/7
f 20/32/5 22/33/5 21/34/5
f 23/35/6 15/26/6 13/25/6
f 24/36/8 16/28/8 17/31/8 25/37/8
f 26/38/5 20/32/5 21/34/5
f 27/39/6 15/26/6 23/35/6
f 28/40/9 24/36/9 25/37/9 29/41/9
f 30/42/5 26/38/5 21/34/5
f 31/43/6 15/26/6 27/39/6
f 32/44/10 28/40/10 29/41/10 33/45/10
f 34/46/5 30/42/5 21/34/5
f 35/47/6 15/26/6 31/43/6
f 36/48/11 32/44/11 33/45/11 37/49/11
f 38/50/5 34/46/5 21/34/5
f 39/51/6 15/26/6 35/47/6
f 40/52/12 36/48/12 37/49/12 41/53/12
f 42/54/5 38/50/5 21/34/5
f 43/55/6 15/26/6 39/51/6
f 44/56/13 40/52/13 41/53/13 45/57/13
f 46/58/5 42/54/5 21/34/5
f 47/59/6 15/26/6 43/55/6
f 48/60/14 44/56/14 45/57/14 49/61/14
f 50/62/5 46/58/5 21/34/5
f 51/63/6 15/26/6 47/59/6
f 52/64/15 48/60/15 49/61/15 53/65/15
f 54/66/5 50/62/5 21/34/5
f 55/67/6 15/26/6 51/63/6
f 56/68/16 52/64/16 53/65/16 57/69/16
f 58/70/5 54/66/5 21/34/5
f 59/71/6 15/26/6 55/67/6
f 60/72/17 56/68/17 57/69/17 61/73/17
f 62/74/5 58/70/5 21/34/5
f 63/75/6 15/26/6 59/71/6
f 64/76/18 60/72/18 61/73/18 65/77/18
f 66/78/5 62/74/5 21/34/5
f 67/79/6 15/26/6 63/75/6
f 68/80/19 64/76/19 65/77/19 69/81/19
f 70/82/5 66/78/5 21/34/5
f 71/83/6 15/26/6 67/79/6
f 72/84/20 68/80/20 69/81/20 73/85/20
f 74/86/5 70/82/5 21/34/5
f 75/87/6 15/26/6 71/83/6
f 76/88/21 72/84/21 73/85/21 77/89/21
f 78/90/5 74/86/5 21/34/5
f 79/91/6 15/26/6 75/87/6
f 80/92/22 76/88/22 77/89/22 81/93/22
f 82/94/5 78/90/5 21/34/5
f 83/95/6 15/26/6 79/91/6
f 84/96/23 80/92/23 81/93/23 85/97/23
f 86/98/5 82/94/5 21/34/5
f 87/99/6 15/26/6 83/95/6
f 88/100/24 84/96/24 85/97/24 89/101/24
f 90/102/5 86/98/5 21/34/5
f 91/103/6 15/26/6 87/99/6
f 92/104/25 88/100/25 89/101/25 93/105/25
f 94/106/5 90/102/5 21/34/5
f 95/107/6 15/26/6 91/103/6
f 96/108/26 92/104/26 93/105/26 97/109/26
f 98/110/5 94/106/5 21/34/5
f 99/111/6 15/26/6 95/107/6
f 100/112/27 96/108/27 97/109/27 101/113/27
f 102/114/5 98/110/5 21/34/5
f 103/115/6 15/26/6 99/111/6
f 104/116/28 100/112/28 101/113/28 105/117/28
f 106/118/5 102/114/5 21/34/5
f 107/119/6 15/26/6 103/115/6
f 108/120/29 104/116/29 105/117/29 109/121/29
f 110/122/5 106/118/5 21/34/5
f 111/123/6 15/26/6 107/119/6
f 112/124/30 108/120/30 109/121/30 113/125/30
f 114/126/5 110/122/5 21/34/5
f 115/127/6 15/26/6 111/123/6
f 116/128/31 112/124/31 113/125/31 117/129/31
f 118/130/5 114/126/5 21/34/5
f 119/131/6 15/26/6 115/127/6
f 120/132/32 116/128/32 117/129/32 121/133/32
f 122/134/5 118/130/5 21/34/5
f 123/135/6 15/26/6 119/131/6
f 124/136/33 120/132/33 121/133/33 125/137/33
f 126/138/5 122/134/5 21/34/5
f 127/139/6 15/26/6 123/135/6
f 128/140/34 124/136/34 125/137/34 129/141/34
f 130/142/5 126/138/5 21/34/5
f 131/143/6 15/26/6 127/139/6
f 132/144/35 128/140/35 129/141/35 133/145/35
f 134/146/5 130/142/5 21/34/5
f 135/147/6 15/26/6 131/143/6
f 136/148/36 132/144/36 133/145/36 137/149/36
f 138/150/5 134/146/5 21/34/5
f 139/151/6 15/26/6 135/147/6
f 140/152/37 136/148/37 137/149/37 141/153/37
f 142/154/5 138/150/5 21/34/5
f 143/155/6 15/26/6 139/151/6
f 144/156/38 140/152/38 141/153/38 145/157/38
f 146/158/5 142/154/5 21/34/5
f 147/159/6 15/26/6 143/155/6
f 148/160/39 144/156/39 145/157/39 149/161/39
f 150/162/5 146/158/5 21/34/5
f 151/163/6 15/26/6 147/159/6
f 152/164/40 148/160/40 149/161/40 153/165/40
f 154/166/5 150/162/5 21/34/5
f 155/167/6 15/26/6 151/163/6
f 156/168/41 152/164/41 153/165/41 157/169/41
f 158/170/5 154/166/5 21/34/5
f 14/27/6 15/26/6 155/167/6
f 19/171/42 156/168/42 157/169/42 18/172/42
f 22/33/5 158/170/5 21/34/5
